<?xml version="1.0" encoding="UTF-8"?>
<svg id="_图层_2" data-name="图层 2" xmlns="http://www.w3.org/2000/svg" viewBox="0 0 229.03 229.03">
  <defs>
    <style>
      .cls-1 {
        fill-rule: evenodd;
      }

      .cls-1, .cls-2 {
        fill: #fff;
      }

      .cls-3 {
        fill: #231815;
        stroke: #231815;
        stroke-miterlimit: 22.93;
        stroke-width: .57px;
      }
    </style>
  </defs>
  <g id="_灞1" data-name="灞1">
    <rect class="cls-3" x=".28" y=".28" width="228.46" height="228.46"/>
    <path class="cls-1" d="M203.38,106.49c-.09,6.1.1,12.21.08,18.31v.12c-.23,4.28-.01,8.57-.1,12.85.04,5.97-.1,11.94.08,17.91v.08s0,.08,0,.08c-.12,3.24.25,6.15-1.3,9.19l-.05.09-.05.09c-1.73,2.77-4.7,4.8-7.99,5.08h-.1s-.1,0-.1,0c-6.81,0-13.63-.02-20.44,0h-2.37s0-2.37,0-2.37c0-32.62-.02-65.23,0-97.85,0-.25,0-.62-.08-.91-.2.13-.4.27-.59.41-8.2,7.06-15.91,14.67-24.23,21.59l-1.55,1.28-1.52-1.32c-4.5-3.9-8.92-7.9-13.43-11.79-2.53-2.19-5.09-4.34-7.52-6.65l-1.84-1.75,1.88-1.71c14.79-13.48,29.76-26.76,44.59-40.19l.03-.03.03-.03c1.51-1.27,2.84-2.74,4.37-3.99,1.91-1.57,3.98-2.71,6.48-2.96h.11s.11-.01.11-.01c5.15-.03,10.31.01,15.46-.02,2.16-.09,4.25.77,5.93,2.08,3.16,2.35,4.34,6.36,4.08,10.16-.03,11.82.02,23.64-.02,35.46-.02,7.67.15,15.34.04,23.02-.07,4.6.21,9.19-.02,13.79h0ZM168.35,30.79c-14.83,13.43-29.8,26.71-44.59,40.18,2.4,2.28,4.95,4.39,7.44,6.57,4.53,3.87,8.93,7.9,13.43,11.8,8.33-6.93,16.06-14.56,24.27-21.63.6-.44,1.23-.83,1.86-1.22.77.38,1.77.56,2.23,1.37.34.68.42,1.45.41,2.21-.01,32.62,0,65.23,0,97.85,6.81-.02,13.63,0,20.44,0,2.54-.22,4.85-1.83,6.18-3.97,1.3-2.54.94-5.46,1.04-8.2-.18-6-.04-12-.08-18,.08-4.32-.13-8.64.1-12.96.02-6.13-.18-12.25-.08-18.38.24-4.58-.02-9.17.02-13.75.14-7.66-.08-15.32-.04-22.99.01-11.85-.02-23.69.02-35.54.22-3-.62-6.32-3.15-8.18-1.25-.98-2.82-1.68-4.44-1.6-5.17.03-10.34-.01-15.51.02-4.07.41-6.65,3.96-9.57,6.41h0ZM28.51,29.27c-.83,1.63-.53,3.53-.58,5.29,0,41.22,0,82.44,0,123.65-.04,1.54.05,3.08.19,4.62.67.96,1.11,2.1,1.95,2.94,1.57,1.2,3.44,2.13,5.46,2.15,6.7.05,13.41,0,20.12.02-.01-16.46,0-32.93,0-49.39-.1-5.43.15-10.88-.12-16.31-.01-10.59.02-21.17,0-31.75-.02-1.29.3-2.79,1.54-3.45,1.02-.4,2.22-.16,2.97.64,16.12,14.53,32.34,28.96,48.59,43.36,1.12.95,2.2,2.12,3.69,2.46,2.45.82,5.24.02,7.06-1.76,5.31-4.75,10.76-9.37,16.08-14.1-1.5-1.16-3.08-2.23-4.38-3.63-7.79-6.69-15.23-13.76-22.97-20.5-7.76-7-15.55-13.97-23.33-20.96-9.75-8.62-19.29-17.47-29.08-26.06-1.38-1.3-3.21-2.22-5.15-2.14-5.03,0-10.06,0-15.1,0-2.94.3-5.7,2.19-6.94,4.9h0ZM120.51,126.6c-1.08,1.03-2.33,1.87-3.65,2.54-1.18.53-2.49.28-3.73.35-1.28-.39-2.54-.95-3.53-1.88-6.37-5.6-12.86-11.04-19.2-16.68-.1,18.99-.02,37.99-.04,56.98,1.84,0,3.68.02,5.52-.15,13.81-12.42,27.54-24.92,41.4-37.27,1.04-1.03,2.04-2.12,3.24-2.98-.2-6.12-.15-12.25-.03-18.37-6.75,5.7-13.23,11.73-19.98,17.45h0ZM57.29,24.75c-1.83-1.71-4.25-2.84-6.78-2.75-5.02,0-10.04,0-15.06,0h-.12s-.12.01-.12.01c-3.77.38-7.24,2.78-8.84,6.22-1.07,2.14-.75,4-.81,6.25v.04s0,.04,0,.04c0,41.21,0,82.41,0,123.62-.04,1.62.06,3.24.2,4.85l.05.63.36.52c.8,1.14,1.17,2.22,2.22,3.26l.11.11.13.1c2,1.53,4.33,2.61,6.88,2.63,6.71.05,13.42,0,20.13.02h2.37s0-2.37,0-2.37c-.01-16.46,0-32.93,0-49.39v-.04c-.11-5.44.14-10.88-.12-16.32-.01-10.57.03-21.13,0-31.7,0-.17.04-.98.2-1.26.08,0,.16.03.21.08l.07.08.08.07c16.13,14.54,32.35,28.97,48.6,43.38l.02.02.02.02c1.48,1.25,2.61,2.45,4.57,2.93,3.25,1.04,6.89.03,9.32-2.3,5.3-4.74,10.73-9.34,16.04-14.07l2.14-1.9-2.27-1.74c-1.38-1.06-2.9-2.09-4.1-3.37l-.09-.09-.1-.08c-7.78-6.68-15.27-13.68-22.94-20.48-7.82-6.93-15.52-14.01-23.32-20.96-9.72-8.65-19.29-17.46-29.06-26.04h0ZM113.48,127.13c-.81-.27-1.66-.65-2.28-1.23l-.03-.03-.03-.02c-6.36-5.59-12.86-11.04-19.19-16.67l-3.91-3.48-.03,5.24c-.1,19-.02,38-.04,56.99v2.36s2.36,0,2.36,0c1.92,0,3.84.02,5.75-.17l.78-.07.58-.52c13.8-12.41,27.53-24.92,41.39-37.27l.05-.04.05-.04c.94-.93,1.87-1.96,2.95-2.73l1.03-.74-.04-1.27c-.2-6.08-.15-12.17-.03-18.25l.1-5.23-4,3.37c-6.76,5.71-13.24,11.73-19.98,17.45l-.05.04-.05.05c-.9.85-1.94,1.55-3.03,2.12-.47.18-1.59.14-2.36.13Z"/>
    <g>
      <path class="cls-1" d="M60.31,177.82c1.48,0,2.68,1.2,2.68,2.68s-1.2,2.68-2.68,2.68-2.68-1.2-2.68-2.68,1.2-2.68,2.68-2.68h0ZM58.29,186.59c1.33,0,2.66,0,3.99,0-.07,6.78,0,13.53.02,20.29-1.35,0-2.69,0-4.03.01.05-6.77-.03-13.53.01-20.3Z"/>
      <path class="cls-1" d="M40.11,192.42c2.41-3.48,4.9-6.91,7.33-10.37.99-1.27,1.78-2.7,2.95-3.8,1.33-.75,3.28.19,3.33,1.78.05,8.95,0,17.91.02,26.86h-3.83s-.21-21.6-.21-21.6c-2.69,4.27-5.82,8.26-8.69,12.41h-.91s-.91,0-.91,0c-2.87-4.15-6-8.14-8.69-12.41l-.21,21.61h-3.83c.02-8.96-.03-17.92.02-26.87.05-1.59,2-2.53,3.33-1.78,1.18,1.1,1.97,2.53,2.95,3.8,2.43,3.46,4.92,6.89,7.33,10.37Z"/>
      <path class="cls-1" d="M105.7,185.8c5.91,0,10.7,4.79,10.7,10.7s-4.79,10.7-10.7,10.7-10.7-4.79-10.7-10.7,4.79-10.7,10.7-10.7h0ZM105.7,189.51c-3.86,0-7,3.13-7,7s3.13,7,7,7,7-3.13,7-7-3.13-7-7-7Z"/>
      <path class="cls-1" d="M66.22,206.89v-12.67c0-2.36.96-4.5,2.51-6.05h0c1.55-1.55,3.69-2.51,6.04-2.51h4.1v4.54h-4.1c-1.11,0-2.12.45-2.85,1.18h0c-.73.73-1.18,1.74-1.18,2.85v12.67h-4.54Z"/>
      <path class="cls-1" d="M81.19,206.89v-12.67c0-2.36.96-4.5,2.51-6.05h0c1.55-1.55,3.69-2.51,6.04-2.51h4.1v4.54h-4.1c-1.11,0-2.12.45-2.85,1.18h0c-.73.73-1.18,1.74-1.18,2.85v12.67h-4.54Z"/>
      <path class="cls-1" d="M119.31,206.89v-12.67c0-2.36.96-4.5,2.51-6.05h0c1.55-1.55,3.69-2.51,6.04-2.51h4.1v4.54h-4.1c-1.11,0-2.12.45-2.85,1.18h0c-.73.73-1.18,1.74-1.18,2.85v12.67h-4.54Z"/>
      <path class="cls-1" d="M166.42,185.8c5.91,0,10.7,4.79,10.7,10.7v10.38h-3.64v-2.34c-1.88,1.66-4.36,2.66-7.06,2.66-5.91,0-10.7-4.79-10.7-10.7s4.79-10.7,10.7-10.7h0ZM166.42,189.51c-3.86,0-7,3.13-7,7s3.13,7,7,7,7-3.13,7-7-3.13-7-7-7Z"/>
      <polygon class="cls-1" points="135.71 178.06 139.71 178.06 139.71 202.89 154.45 202.89 154.45 206.89 139.71 206.89 135.71 206.89 135.58 206.89 135.58 202.89 135.71 202.89 135.71 178.06"/>
      <path class="cls-1" d="M191.51,207.21c-5.91,0-10.7-4.79-10.7-10.7v-19.69h3.64v11.65c1.88-1.66,4.36-2.66,7.06-2.66,5.91,0,10.7,4.79,10.7,10.7s-4.79,10.7-10.7,10.7h0ZM191.51,203.5c3.86,0,7-3.13,7-7s-3.13-7-7-7-7,3.13-7,7,3.13,7,7,7Z"/>
      <rect class="cls-2" x="58.29" y="186.59" width="4.02" height="20.29"/>
    </g>
  </g>
</svg>